<svg width="24" height="24" viewBox="0 0 24 24" fill="none" xmlns="http://www.w3.org/2000/svg">
<path d="M12 19.654L11.242 18.969C9.61 17.4783 8.26 16.2023 7.192 15.141C6.12467 14.079 5.282 13.1423 4.664 12.331C4.046 11.5197 3.614 10.7863 3.368 10.131C3.122 9.47567 2.99933 8.81533 3 8.15C3 6.878 3.432 5.81 4.296 4.946C5.16 4.082 6.228 3.65 7.5 3.65C8.38 3.65 9.205 3.875 9.975 4.325C10.745 4.775 11.42 5.42967 12 6.289C12.58 5.42967 13.255 4.775 14.025 4.325C14.795 3.875 15.62 3.65 16.5 3.65C17.772 3.65 18.84 4.082 19.704 4.946C20.568 5.81 21 6.878 21 8.15C21 8.814 20.8773 9.474 20.632 10.13C20.386 10.7873 19.954 11.5213 19.336 12.332C18.718 13.1427 17.8783 14.079 16.817 15.141C15.7557 16.2023 14.4023 17.4783 12.757 18.969L12 19.654ZM12 18.3C13.6 16.8533 14.9167 15.6147 15.95 14.584C16.9833 13.5533 17.8 12.6583 18.4 11.899C19 11.1397 19.4167 10.468 19.65 9.884C19.8833 9.29867 20 8.72067 20 8.15C20 7.15 19.6667 6.31667 19 5.65C18.3333 4.98333 17.5 4.65 16.5 4.65C15.704 4.65 14.9693 4.87733 14.296 5.332C13.6227 5.78667 13.0207 6.471 12.49 7.385H11.512C10.9673 6.45833 10.3617 5.77067 9.695 5.322C9.02833 4.874 8.297 4.65 7.501 4.65C6.51433 4.65 5.68433 4.98333 5.011 5.65C4.33767 6.31667 4.00067 7.15 4 8.15C4 8.72067 4.11667 9.29867 4.35 9.884C4.58333 10.4693 5 11.141 5.6 11.899C6.2 12.657 7.01667 13.5487 8.05 14.574C9.08333 15.5993 10.4 16.8413 12 18.3Z" fill="black"/>
</svg>
